<?xml version="1.0" encoding="UTF-8" standalone="no"?>
<!-- Created with Inkscape (http://www.inkscape.org/) -->

<svg
   width="512"
   height="512"
   viewBox="0 0 135.46667 135.46667"
   version="1.1"
   id="svg5"
   inkscape:version="1.1.2 (0a00cf5339, 2022-02-04)"
   sodipodi:docname="a_inkscape.svg"
   xmlns:inkscape="http://www.inkscape.org/namespaces/inkscape"
   xmlns:sodipodi="http://sodipodi.sourceforge.net/DTD/sodipodi-0.dtd"
   xmlns="http://www.w3.org/2000/svg"
   xmlns:svg="http://www.w3.org/2000/svg">
  <sodipodi:namedview
     id="namedview7"
     pagecolor="#505050"
     bordercolor="#ffffff"
     borderopacity="1"
     inkscape:pageshadow="0"
     inkscape:pageopacity="0"
     inkscape:pagecheckerboard="1"
     inkscape:document-units="mm"
     showgrid="false"
     width="512px"
     inkscape:zoom="0.74499032"
     inkscape:cx="181.88156"
     inkscape:cy="267.78871"
     inkscape:window-width="1920"
     inkscape:window-height="1051"
     inkscape:window-x="0"
     inkscape:window-y="0"
     inkscape:window-maximized="1"
     inkscape:current-layer="layer1"
     scale-x="1"
     units="px" />
  <defs
     id="defs2" />
  <g
     inkscape:label="Ebene 1"
     inkscape:groupmode="layer"
     id="layer1">
    <g
       id="g63"
       transform="matrix(0.02524199,0,0,0.02524199,-1.0320213,-3.9338882)">
      <g
         fill="#a4195e"
         id="g19">
        <g
           id="g17">
          <path
             d="m 2475,2711 c -72,-18 -115,-77 -115,-158 0,-45 8,-62 81,-179 172,-272 208,-333 218,-371 6,-21 11,-107 11,-190 0,-140 -2,-153 -18,-153 -53,0 -86,-76 -43,-100 12,-6 118,-10 275,-10 218,0 257,2 270,16 32,32 17,72 -38,99 -20,10 -21,19 -24,159 -1,81 2,162 7,180 4,18 72,135 150,260 82,130 145,241 148,261 9,58 -5,104 -49,151 l -41,44 -401,-1 c -220,-1 -414,-4 -431,-8 z m 810,-121 c 23,-25 16,-49 -39,-135 l -45,-70 h -108 c -98,-1 -118,-4 -217,-38 -116,-40 -204,-48 -259,-24 -41,18 -147,189 -147,238 0,21 6,40 13,42 6,3 186,6 398,6 371,1 387,0 404,-19 z m -176,-319 c 11,-7 3,-26 -36,-92 -88,-146 -83,-127 -83,-334 v -185 h -98 c -63,0 -102,4 -110,12 -8,8 -12,63 -12,182 0,161 -2,174 -25,224 -14,30 -34,66 -45,82 -11,15 -20,30 -20,33 0,2 26,7 58,10 32,4 96,20 143,36 46,16 93,31 104,34 35,8 109,7 124,-2 z"
             id="path9" />
          <path
             d="m 1842,1973 c -32,-6 -156,-125 -177,-170 -12,-26 -15,-44 -9,-64 6,-18 141,-161 368,-389 339,-340 362,-360 396,-360 42,0 66,15 138,84 62,59 82,93 82,136 0,27 -43,75 -362,401 -379,387 -365,375 -436,362 z m 283,-352 229,-231 -44,-45 c -24,-25 -52,-45 -61,-45 -9,0 -123,104 -253,232 l -237,231 52,53 c 40,40 56,51 68,44 9,-5 119,-112 246,-239 z m 362,-363 53,-52 -52,-53 c -29,-29 -57,-53 -63,-52 -5,1 -32,25 -59,55 l -48,53 53,51 c 30,27 56,50 59,50 2,0 28,-23 57,-52 z"
             id="path11" />
          <path
             d="m 3298,1427 c -9,-7 -18,-24 -20,-37 -2,-17 -12,-26 -35,-32 -56,-15 -56,-81 0,-96 24,-6 33,-14 35,-34 2,-15 9,-32 17,-38 19,-16 66,-8 76,13 5,9 13,25 17,34 5,10 19,20 32,23 53,12 51,82 -3,108 -15,7 -34,26 -42,43 -17,31 -47,38 -77,16 z"
             id="path13" />
          <path
             d="m 2953,1162 c -6,-4 -13,-21 -15,-37 -2,-23 -9,-31 -28,-33 -35,-5 -50,-20 -50,-51 0,-33 17,-51 47,-51 18,0 25,-7 30,-31 12,-61 87,-60 100,2 4,22 11,29 28,29 12,0 30,9 41,21 17,19 17,23 3,47 -9,17 -25,28 -42,30 -15,2 -27,10 -27,17 0,34 -24,65 -49,65 -14,0 -31,-4 -38,-8 z"
             id="path15" />
        </g>
      </g>
      <g
         fill="#133451"
         id="g39">
        <g
           id="g37">
          <path
             d="m 190,3496 c 0,-177 4,-295 11,-313 15,-42 69,-92 109,-103 41,-11 415,-7 445,5 43,17 86,58 110,105 22,43 25,62 25,154 0,101 -1,105 -32,152 -19,27 -54,62 -82,79 l -49,30 -179,3 -178,3 v -65 -66 h 155 c 202,0 231,-13 246,-109 10,-63 -3,-118 -36,-150 l -25,-26 H 526 c -140,0 -187,3 -199,14 -15,12 -17,45 -17,292 v 279 h -60 -60 z"
             id="path21" />
          <path
             d="m 1154,3769 c -39,-11 -118,-80 -140,-122 -13,-25 -18,-69 -22,-214 l -4,-183 h 61 61 v 156 c 0,241 11,254 220,254 h 130 v -205 -205 h 60 60 v 253 c 0,183 -3,256 -12,265 -14,14 -365,15 -414,1 z"
             id="path23" />
          <path
             d="m 1712,3566 3,-214 31,-38 c 44,-55 76,-62 260,-63 182,-1 174,-5 174,82 v 37 h -158 c -141,0 -161,2 -175,18 -15,16 -17,46 -17,205 v 187 h -61 -60 z"
             id="path25" />
          <path
             d="m 2382,3770 c -19,-4 -47,-21 -63,-36 -53,-50 -59,-75 -59,-222 0,-153 11,-187 78,-232 36,-24 42,-25 213,-25 h 176 l 37,29 c 79,60 100,149 52,225 -49,77 -60,81 -227,81 h -149 v -49 -48 l 123,-8 c 134,-8 157,-17 157,-65 0,-49 -20,-55 -172,-55 -136,0 -140,1 -160,25 -17,22 -19,36 -16,136 2,62 7,116 11,121 5,4 68,10 140,13 l 132,5 3,58 3,57 -123,-1 c -68,-1 -138,-5 -156,-9 z"
             id="path27" />
          <path
             d="m 2950,3430 v -350 h 60 59 l 3,143 3,142 h 230 230 l 3,-142 3,-143 h 59 60 v 350 350 h -60 -60 v -145 -145 l -232,2 -233,3 -3,143 -3,142 h -59 -60 z"
             id="path29" />
          <path
             d="m 3841,3761 c -20,-20 -21,-29 -21,-339 0,-291 2,-320 18,-335 15,-14 48,-15 249,-12 217,3 236,5 278,26 55,28 100,71 128,123 20,37 22,56 22,201 0,177 -5,194 -79,273 -63,67 -95,75 -347,80 -220,4 -228,3 -248,-17 z m 462,-115 c 41,-17 81,-62 96,-105 26,-78 7,-231 -36,-282 -49,-57 -72,-63 -253,-64 h -165 l -3,233 -2,232 h 165 c 118,0 175,-4 198,-14 z"
             id="path31" />
          <path
             d="m 4668,3448 c -3,-183 -3,-339 0,-346 2,-7 12,-16 21,-21 9,-5 150,-6 314,-3 l 297,5 v 53 54 h -254 c -222,0 -255,2 -260,16 -3,9 -6,141 -6,295 v 279 h -54 -53 z"
             id="path33" />
          <path
             d="m 4850,3425 v -55 h 195 195 v 55 55 h -195 -195 z"
             id="path35" />
        </g>
      </g>
    </g>
  </g>
</svg>
