<!DOCTYPE svg PUBLIC "-//W3C//DTD SVG 20010904//EN" "http://www.w3.org/TR/2001/REC-SVG-20010904/DTD/svg10.dtd">
<svg version="1.0" xmlns="http://www.w3.org/2000/svg" width="510px" height="443px" viewBox="0 0 5100 4430" preserveAspectRatio="xMidYMid meet">
<g id="layer101" fill="#081825" stroke="none">
 <path d="M0 2215 l0 -2215 2550 0 2550 0 0 2215 0 2215 -2550 0 -2550 0 0 -2215z"/>
 </g>
<g id="layer102" fill="#133958" stroke="none">
 <path d="M0 2215 l0 -2215 2550 0 2550 0 0 2215 0 2215 -2550 0 -2550 0 0 -2215z m2511 1115 c4 0 15 -13 24 -30 13 -24 15 -87 15 -400 l0 -370 -70 0 -70 0 0 275 c0 151 -1 275 -3 275 -3 0 -144 -142 -337 -339 -58 -59 -124 -131 -148 -159 -53 -64 -99 -78 -138 -41 l-24 22 0 379 0 378 70 0 70 0 2 -276 3 -276 80 82 c44 46 121 123 170 174 50 50 113 118 140 150 66 78 173 169 192 162 8 -3 19 -6 24 -6z m-909 -27 c25 -30 29 -53 13 -84 -9 -16 -19 -29 -23 -30 -54 -6 -65 -3 -88 24 -38 46 -9 107 51 107 18 0 38 -8 47 -17z m1838 -53 l0 -70 -271 0 c-161 0 -278 -4 -289 -10 -17 -9 -19 -26 -20 -255 l-1 -245 291 0 290 0 0 -70 0 -70 -338 0 c-276 0 -342 3 -358 14 -18 14 -19 30 -21 319 l-2 304 26 52 c14 29 35 57 47 62 11 5 32 16 46 24 20 12 80 15 313 15 l287 0 0 -70z m542 -252 l3 -323 158 -3 157 -3 0 -69 0 -70 -390 0 -390 0 0 70 0 70 160 0 160 0 0 325 0 325 70 0 70 0 2 -322z m-614 -75 l-3 -68 -222 -3 -223 -2 0 70 0 70 225 0 226 0 -3 -67z m-2058 -1138 l0 -165 255 0 255 0 0 165 0 165 70 0 70 0 0 -395 0 -395 -70 0 -70 0 0 160 0 160 -255 0 -255 0 0 -160 0 -160 -70 0 -70 0 0 395 0 395 70 0 70 0 0 -165z m1397 143 c47 -15 76 -32 116 -71 89 -86 105 -137 102 -328 -2 -114 -4 -131 -29 -184 -36 -75 -80 -119 -156 -157 l-62 -30 -251 1 c-224 1 -254 4 -269 19 -16 16 -18 50 -18 375 -1 251 2 363 10 372 18 21 39 23 275 23 190 -1 229 -3 282 -20z m507 -308 l0 -325 291 0 290 0 0 -55 c0 -30 -1 -61 -3 -67 -3 -10 -80 -13 -340 -13 -298 0 -337 2 -354 17 -17 15 -18 41 -18 395 l0 379 67 -3 67 -3 0 -325z m1646 318 c35 -13 100 -77 116 -115 16 -36 18 -148 5 -207 -9 -39 -51 -86 -101 -115 -19 -11 -78 -16 -236 -20 -148 -4 -216 -10 -226 -19 -11 -9 -16 -34 -17 -90 l-2 -77 263 0 263 0 0 -65 0 -65 -333 -3 -334 -2 3 147 c4 190 14 222 89 274 l55 39 207 1 c201 0 208 1 223 22 23 32 20 129 -4 151 -10 9 -22 16 -27 15 -5 -1 -129 -1 -276 0 l-268 1 0 71 0 70 287 -2 c158 -1 299 -6 313 -11z m-1130 -388 l0 -70 -230 0 -230 0 0 70 0 70 230 0 230 0 0 -70z"/>
 <path d="M2275 1554 l0 -259 183 1 c172 2 186 3 230 26 75 39 94 82 94 221 0 124 -6 159 -34 198 -43 57 -66 63 -278 67 l-195 4 0 -258z"/>
 </g>
<g id="layer103" fill="#1e4360" stroke="none">
 <path d="M0 2215 l0 -2215 2550 0 2550 0 0 2215 0 2215 -2550 0 -2550 0 0 -2215z m2170 2106 c0 -12 -28 -22 -34 -12 -3 5 -3 11 1 15 9 9 33 7 33 -3z m-76 -7 c9 -3 13 -10 10 -15 -3 -5 -10 -7 -15 -3 -5 3 -16 1 -24 -6 -7 -6 -24 -12 -37 -14 -13 -1 -40 -10 -60 -19 -21 -10 -52 -19 -70 -21 -40 -5 -123 -40 -133 -55 -3 -6 -10 -9 -15 -6 -12 7 -170 -72 -170 -85 0 -6 -7 -10 -16 -10 -24 0 -85 -40 -79 -51 4 -5 0 -6 -8 -3 -7 2 -60 -30 -118 -72 -118 -88 -181 -143 -173 -156 3 -4 -3 -8 -12 -8 -20 0 -84 -57 -84 -74 0 -6 -23 -30 -50 -54 -28 -24 -50 -50 -50 -58 0 -7 -5 -14 -11 -14 -5 0 -15 -13 -20 -30 -6 -16 -15 -27 -20 -24 -5 3 -12 -3 -16 -13 -3 -10 -12 -22 -20 -26 -7 -4 -13 -15 -13 -22 0 -8 -4 -15 -9 -15 -32 0 -229 -368 -257 -480 -9 -36 -21 -74 -27 -85 -7 -11 -12 -28 -13 -37 -1 -9 -9 -33 -18 -53 -9 -19 -14 -39 -11 -44 3 -5 0 -13 -6 -16 -5 -4 -8 -13 -5 -21 3 -7 1 -16 -5 -20 -6 -3 -8 -13 -5 -21 4 -9 2 -21 -2 -27 -5 -6 -10 -18 -11 -26 0 -8 -3 -31 -6 -50 -20 -131 -26 -213 -26 -365 -1 -77 2 -148 6 -158 4 -10 5 -33 2 -52 -3 -20 -1 -37 5 -41 6 -4 8 -21 5 -40 -3 -19 -1 -36 4 -40 6 -3 8 -17 5 -29 -3 -13 -1 -27 4 -30 6 -4 8 -15 5 -25 -3 -10 -1 -21 5 -25 6 -4 8 -15 5 -25 -3 -10 -1 -21 4 -24 6 -4 8 -13 5 -20 -3 -8 0 -17 5 -21 6 -3 9 -10 7 -14 -11 -17 72 -248 130 -363 20 -40 52 -96 70 -124 19 -28 34 -55 34 -60 0 -5 9 -17 20 -27 11 -9 20 -23 20 -31 0 -8 6 -19 13 -23 16 -10 77 -98 77 -111 0 -5 11 -17 25 -26 14 -9 24 -20 22 -24 -1 -4 30 -40 68 -80 39 -41 73 -82 77 -93 4 -11 16 -23 26 -27 27 -10 102 -77 102 -90 0 -7 7 -12 15 -12 8 0 19 -9 25 -20 6 -11 17 -20 24 -20 8 0 16 -7 20 -15 3 -8 12 -15 21 -15 8 0 15 -4 15 -9 0 -12 116 -91 134 -91 9 0 16 -4 16 -10 0 -12 82 -60 102 -60 8 0 32 -11 52 -25 20 -14 43 -25 50 -25 7 0 26 -10 41 -22 15 -12 36 -22 45 -23 10 -1 26 -7 34 -15 9 -7 19 -10 23 -6 3 3 13 0 22 -8 16 -13 81 -38 111 -41 8 -1 28 -7 43 -14 16 -6 32 -9 37 -6 5 3 12 0 15 -6 4 -5 13 -8 21 -5 7 3 16 1 20 -5 3 -6 12 -8 20 -5 7 3 16 1 19 -4 3 -5 -18 -7 -52 -4 -32 2 -69 5 -83 5 -14 0 -30 5 -36 10 -6 5 -19 7 -28 3 -9 -3 -23 -1 -31 6 -8 6 -19 9 -25 5 -6 -4 -17 -1 -25 5 -8 6 -19 9 -24 6 -5 -4 -13 -1 -16 5 -4 5 -13 8 -21 5 -7 -3 -16 -1 -20 5 -3 6 -12 8 -19 5 -7 -2 -17 0 -22 5 -6 6 -29 12 -53 14 -23 2 -50 11 -60 20 -11 10 -24 14 -30 10 -6 -4 -19 0 -28 8 -25 22 -90 47 -107 41 -8 -4 -15 -1 -15 5 0 6 -44 33 -97 60 -54 27 -138 75 -188 106 -49 32 -98 62 -109 69 -10 6 -39 30 -65 53 -25 24 -50 43 -54 43 -5 0 -29 22 -54 50 -25 27 -51 50 -59 50 -8 0 -14 6 -14 14 0 8 -29 41 -65 72 -36 32 -65 61 -65 66 0 4 -33 52 -72 107 -134 182 -148 202 -148 215 0 8 -6 18 -13 24 -7 6 -24 35 -36 64 -13 29 -27 60 -32 68 -17 29 -41 85 -43 100 -3 20 -14 49 -32 82 -8 14 -14 38 -14 51 0 14 -5 29 -10 32 -6 4 -8 10 -5 14 2 5 -2 22 -11 39 -8 17 -16 46 -17 64 -1 18 -5 38 -9 43 -11 18 -29 135 -23 146 4 5 1 16 -5 24 -8 9 -10 28 -6 49 4 20 2 37 -4 41 -14 9 -14 352 1 361 7 4 8 20 4 41 -4 21 -2 40 6 49 6 7 8 21 5 30 -4 9 -1 23 5 30 6 8 9 23 6 35 -3 12 -2 29 3 38 8 14 59 211 65 251 1 8 9 32 18 54 10 21 17 45 17 53 0 8 12 34 26 58 14 25 23 49 20 54 -3 5 1 14 9 21 8 7 15 19 15 27 0 17 26 68 46 91 17 18 124 188 124 196 0 3 13 20 30 38 16 18 30 38 30 45 0 7 4 13 10 13 5 0 17 16 26 35 9 20 19 33 22 30 8 -7 42 26 42 41 0 7 20 29 45 50 25 20 44 39 41 41 -6 6 69 73 81 73 5 0 33 25 62 56 29 31 68 62 87 70 19 8 34 19 34 24 0 6 4 10 9 10 15 0 141 83 141 92 0 4 9 8 20 8 11 0 23 7 26 15 4 8 10 12 16 9 5 -3 18 3 29 15 11 12 28 21 38 21 10 0 24 6 31 14 6 8 17 13 23 10 7 -2 28 6 47 18 19 12 42 22 50 23 25 2 114 38 131 52 9 7 23 11 32 8 8 -4 18 -1 22 4 3 6 10 9 15 6 5 -3 21 0 37 6 15 7 33 13 38 14 6 0 23 7 39 13 16 7 37 10 46 7 10 -3 21 -1 25 5 4 7 18 9 30 6 13 -3 27 -1 30 5 4 6 19 7 35 4 16 -3 31 -2 35 4 7 12 26 14 49 5z m436 -1000 c13 -13 15 -73 18 -399 l3 -385 -71 0 -70 0 0 275 c0 151 -2 275 -4 275 -1 0 -54 -53 -117 -117 -63 -64 -150 -153 -194 -198 -44 -44 -111 -115 -148 -158 -81 -90 -120 -106 -163 -66 l-24 22 0 379 0 378 70 0 70 0 2 -276 3 -276 80 83 c44 45 132 137 195 203 178 185 243 251 270 269 26 18 55 15 80 -9z m-928 -11 c25 -29 29 -53 13 -82 -26 -51 -72 -55 -109 -10 -19 22 -25 38 -20 53 11 36 36 56 69 56 18 0 38 -8 47 -17z m1838 -53 l0 -70 -274 0 c-242 0 -275 -2 -287 -17 -11 -12 -15 -71 -17 -255 l-3 -238 290 0 291 0 0 -70 0 -70 -340 0 c-329 0 -341 1 -360 20 -20 20 -21 31 -20 320 l2 299 25 51 c14 28 35 56 47 61 11 5 32 16 46 24 20 12 80 15 313 15 l287 0 0 -70z m542 -252 l3 -323 158 -3 157 -3 0 -69 0 -70 -390 0 -390 0 0 70 0 70 160 0 160 0 0 325 0 325 70 0 70 0 2 -322z m-614 -70 l-3 -73 -222 -3 -223 -2 0 75 0 75 225 0 226 0 -3 -72z m-2058 -1143 l0 -165 255 0 255 0 0 165 0 165 70 0 70 0 0 -400 0 -400 -70 0 -70 0 0 165 0 165 -255 0 -255 0 0 -165 0 -165 -76 0 c-65 0 -75 2 -70 16 3 9 6 189 6 400 l0 384 70 0 70 0 0 -165z m1379 150 c62 -16 88 -31 134 -74 50 -47 82 -103 97 -169 16 -71 7 -270 -15 -333 -22 -63 -96 -139 -170 -175 l-60 -29 -248 0 -249 0 -24 28 -24 28 0 342 c0 369 1 380 53 390 52 11 460 4 506 -8z m525 -315 l0 -325 291 0 290 0 0 -73 0 -73 -342 3 c-313 3 -344 5 -360 21 -17 16 -18 49 -21 398 l-3 380 73 -3 72 -3 0 -325z m1656 314 c82 -35 120 -105 120 -223 0 -90 -10 -124 -48 -164 -54 -58 -70 -61 -282 -65 -107 -1 -205 -5 -217 -7 -27 -6 -43 -52 -43 -124 l0 -56 262 0 263 0 3 -72 3 -73 -336 0 -336 0 2 154 c1 94 7 168 15 191 13 39 73 101 111 116 13 5 115 9 228 9 239 2 235 0 235 103 0 57 -1 58 -35 73 -27 11 -90 14 -295 14 l-260 0 0 70 0 71 287 -1 c227 -1 295 -5 323 -16z m-1140 -384 l0 -70 -230 0 -230 0 0 70 0 70 230 0 230 0 0 -70z"/>
 <path d="M2274 1795 c3 -9 6 -124 6 -256 l0 -239 183 0 c172 0 187 1 228 23 35 18 49 34 70 77 25 53 26 59 20 181 -8 143 -18 167 -94 203 -36 17 -68 20 -231 24 -174 4 -188 3 -182 -13z"/>
 </g>
<g id="layer104" fill="#ffffff" stroke="none">
 <path d="M0 2215 l0 -2215 2550 0 2550 0 0 2215 0 2215 -2550 0 -2550 0 0 -2215z m2170 2105 c0 -5 -19 -14 -42 -20 -203 -49 -473 -165 -643 -275 -494 -319 -838 -818 -954 -1382 -64 -313 -51 -672 36 -983 166 -599 594 -1105 1160 -1372 115 -54 300 -118 401 -139 38 -8 62 -18 62 -26 0 -9 -8 -12 -22 -9 -13 3 -54 8 -93 11 -200 18 -463 94 -665 191 -263 126 -468 281 -672 509 -127 141 -222 283 -313 470 -151 309 -215 586 -215 934 0 337 66 621 215 926 287 586 843 1014 1480 1139 186 36 265 44 265 26z m363 -1008 c16 -14 17 -46 17 -399 l0 -383 -70 0 -70 0 0 275 c0 151 -3 274 -7 274 -5 -1 -60 -56 -123 -123 -393 -414 -416 -436 -451 -436 -18 0 -41 7 -51 17 -17 15 -18 41 -18 400 l0 383 70 0 70 0 2 -276 3 -277 265 278 c146 152 274 281 285 285 24 10 54 3 78 -18z m-931 -9 c25 -30 29 -53 13 -83 -18 -34 -56 -47 -91 -31 -66 30 -42 131 31 131 18 0 38 -8 47 -17z m1838 -53 l0 -70 -274 0 c-242 0 -275 -2 -287 -17 -11 -12 -15 -71 -17 -255 l-3 -238 290 0 291 0 0 -70 0 -70 -340 0 c-329 0 -341 1 -360 20 -20 20 -21 30 -18 334 l3 313 28 42 c51 77 69 81 400 81 l287 0 0 -70z m542 -252 l3 -323 158 -3 157 -3 0 -69 0 -70 -390 0 -390 0 0 70 0 70 160 0 160 0 0 325 0 325 70 0 70 0 2 -322z m-602 -73 l0 -75 -230 0 -230 0 0 75 0 75 230 0 230 0 0 -75z m-2070 -1140 l0 -165 255 0 255 0 0 165 0 165 70 0 70 0 0 -400 0 -400 -70 0 -70 0 0 165 0 165 -255 0 -255 0 0 -165 0 -165 -76 0 c-65 0 -75 2 -70 16 3 9 6 189 6 400 l0 384 70 0 70 0 0 -165z m1375 151 c72 -19 106 -39 152 -89 78 -85 98 -157 90 -328 -6 -137 -23 -192 -82 -257 -87 -97 -160 -114 -460 -110 -190 3 -216 5 -232 21 -16 16 -18 48 -21 372 l-3 355 25 25 25 25 228 0 c158 0 243 -4 278 -14z m531 -306 c1 -173 2 -318 3 -322 0 -4 130 -9 289 -10 l287 -3 0 -73 0 -73 -342 3 c-313 3 -344 5 -360 21 -17 16 -18 49 -21 398 l-3 380 73 -3 72 -3 2 -315z m1652 305 c86 -37 121 -100 122 -222 0 -92 -9 -125 -48 -167 -55 -59 -87 -66 -304 -66 -217 0 -222 -1 -233 -63 -4 -18 -5 -51 -3 -72 l3 -40 260 -5 260 -5 3 -72 3 -73 -336 0 -335 0 0 148 c0 168 8 208 53 259 51 58 74 63 281 63 179 0 232 7 248 33 15 24 8 104 -11 128 l-19 24 -276 3 -276 3 0 69 0 70 285 0 c235 0 292 -3 323 -15z m-1138 -385 l0 -70 -230 0 -230 0 0 70 0 70 230 0 230 0 0 -70z"/>
 <path d="M2288 1804 c-5 -4 -8 -119 -8 -256 l0 -248 183 0 c173 0 186 1 228 23 73 39 89 78 89 227 0 111 -3 129 -23 165 -14 24 -40 50 -67 65 -42 24 -55 25 -220 28 -96 2 -178 0 -182 -4z"/>
 </g>

</svg>