<?xml version="1.0" encoding="UTF-8"?>
<svg xmlns="http://www.w3.org/2000/svg" xmlns:xlink="http://www.w3.org/1999/xlink" width="43pt" height="38pt" viewBox="0 0 43 38" version="1.1">
<g id="surface1">
<path style=" stroke:none;fill-rule:nonzero;fill:rgb(3.137255%,9.411765%,14.509804%);fill-opacity:1;" d="M 0 19 L 0 0 L 43 0 L 43 38 L 0 38 Z M 0 19 "/>
<path style=" stroke:none;fill-rule:nonzero;fill:rgb(7.45098%,22.352941%,34.509804%);fill-opacity:1;" d="M 0 19 L 0 0 L 43 0 L 43 38 L 0 38 Z M 21.171875 28.5625 C 21.203125 28.5625 21.296875 28.453125 21.375 28.308594 C 21.484375 28.101562 21.5 27.5625 21.5 24.875 L 21.5 21.703125 L 20.320312 21.703125 L 20.320312 24.0625 C 20.320312 25.355469 20.3125 26.417969 20.292969 26.417969 C 20.269531 26.417969 19.082031 25.203125 17.453125 23.511719 C 16.964844 23.007812 16.40625 22.386719 16.207031 22.148438 C 15.757812 21.597656 15.371094 21.480469 15.042969 21.796875 L 14.839844 21.984375 L 14.839844 28.480469 L 16.019531 28.480469 L 16.035156 26.109375 L 16.0625 23.742188 L 16.734375 24.445312 C 17.105469 24.839844 17.757812 25.503906 18.167969 25.941406 C 18.589844 26.367188 19.121094 26.953125 19.351562 27.226562 C 19.90625 27.894531 20.808594 28.675781 20.96875 28.617188 C 21.035156 28.589844 21.128906 28.5625 21.171875 28.5625 Z M 13.507812 28.332031 C 13.71875 28.074219 13.75 27.878906 13.617188 27.613281 C 13.539062 27.476562 13.457031 27.363281 13.421875 27.355469 C 12.96875 27.304688 12.875 27.328125 12.679688 27.5625 C 12.359375 27.957031 12.605469 28.480469 13.109375 28.480469 C 13.261719 28.480469 13.429688 28.410156 13.507812 28.332031 Z M 29.003906 27.878906 L 29.003906 27.277344 L 26.71875 27.277344 C 25.363281 27.277344 24.375 27.242188 24.28125 27.191406 C 24.140625 27.113281 24.121094 26.96875 24.113281 25.003906 L 24.105469 22.902344 L 29.003906 22.902344 L 29.003906 21.703125 L 26.152344 21.703125 C 23.828125 21.703125 23.269531 21.726562 23.136719 21.820312 C 22.984375 21.941406 22.976562 22.078125 22.957031 24.558594 L 22.941406 27.167969 L 23.160156 27.613281 C 23.277344 27.859375 23.457031 28.101562 23.558594 28.144531 C 23.648438 28.1875 23.828125 28.28125 23.945312 28.351562 C 24.113281 28.453125 24.621094 28.480469 26.585938 28.480469 L 29.003906 28.480469 Z M 33.574219 25.714844 L 33.597656 22.945312 L 34.929688 22.921875 L 36.253906 22.894531 L 36.253906 21.703125 L 29.679688 21.703125 L 29.679688 22.902344 L 32.375 22.902344 L 32.375 28.480469 L 33.558594 28.480469 Z M 28.398438 25.074219 L 28.371094 24.488281 L 26.5 24.464844 L 24.621094 24.445312 L 24.621094 25.648438 L 28.421875 25.648438 Z M 11.046875 15.3125 L 11.046875 13.894531 L 15.34375 13.894531 L 15.34375 16.726562 L 16.527344 16.726562 L 16.527344 9.949219 L 15.34375 9.949219 L 15.34375 12.695312 L 11.046875 12.695312 L 11.046875 9.949219 L 9.863281 9.949219 L 9.863281 16.726562 L 11.046875 16.726562 Z M 22.824219 16.539062 C 23.21875 16.410156 23.464844 16.261719 23.800781 15.929688 C 24.550781 15.191406 24.6875 14.753906 24.660156 13.117188 C 24.644531 12.136719 24.628906 11.992188 24.417969 11.539062 C 24.113281 10.894531 23.742188 10.515625 23.101562 10.191406 L 22.578125 9.933594 L 20.464844 9.941406 C 18.574219 9.949219 18.320312 9.976562 18.195312 10.105469 C 18.058594 10.242188 18.042969 10.535156 18.042969 13.320312 C 18.035156 15.472656 18.058594 16.433594 18.128906 16.511719 C 18.277344 16.691406 18.457031 16.710938 20.445312 16.710938 C 22.046875 16.699219 22.375 16.683594 22.824219 16.539062 Z M 27.097656 13.894531 L 27.097656 11.109375 L 31.996094 11.109375 L 31.996094 10.636719 C 31.996094 10.378906 31.988281 10.113281 31.972656 10.0625 C 31.945312 9.976562 31.296875 9.949219 29.105469 9.949219 C 26.59375 9.949219 26.265625 9.96875 26.121094 10.097656 C 25.976562 10.226562 25.96875 10.449219 25.96875 13.484375 L 25.96875 16.734375 L 26.535156 16.710938 L 27.097656 16.683594 Z M 40.976562 16.625 C 41.273438 16.511719 41.820312 15.964844 41.953125 15.636719 C 42.089844 15.328125 42.105469 14.367188 41.996094 13.863281 C 41.921875 13.527344 41.566406 13.125 41.144531 12.875 C 40.984375 12.78125 40.488281 12.738281 39.15625 12.703125 C 37.90625 12.667969 37.335938 12.617188 37.25 12.539062 C 37.15625 12.464844 37.113281 12.25 37.105469 11.769531 L 37.089844 11.109375 L 41.523438 11.109375 L 41.523438 9.992188 L 38.71875 9.96875 L 35.902344 9.949219 L 35.925781 11.210938 C 35.960938 12.839844 36.042969 13.117188 36.675781 13.5625 L 37.140625 13.894531 L 38.886719 13.90625 C 40.582031 13.90625 40.640625 13.914062 40.765625 14.09375 C 40.960938 14.367188 40.933594 15.199219 40.730469 15.390625 C 40.648438 15.464844 40.546875 15.527344 40.503906 15.515625 C 40.460938 15.507812 39.417969 15.507812 38.175781 15.515625 L 35.917969 15.527344 L 35.917969 16.734375 L 38.335938 16.71875 C 39.667969 16.710938 40.859375 16.667969 40.976562 16.625 Z M 31.449219 13.296875 L 31.449219 12.695312 L 27.570312 12.695312 L 27.570312 13.894531 L 31.449219 13.894531 Z M 31.449219 13.296875 "/>
<path style=" stroke:none;fill-rule:nonzero;fill:rgb(7.45098%,22.352941%,34.509804%);fill-opacity:1;" d="M 19.179688 13.328125 L 19.179688 11.109375 L 20.722656 11.117188 C 22.175781 11.132812 22.292969 11.144531 22.664062 11.339844 C 23.296875 11.675781 23.457031 12.042969 23.457031 13.234375 C 23.457031 14.300781 23.40625 14.597656 23.167969 14.933594 C 22.808594 15.421875 22.613281 15.472656 20.824219 15.507812 L 19.179688 15.542969 Z M 19.179688 13.328125 "/>
<path style=" stroke:none;fill-rule:nonzero;fill:rgb(11.764706%,26.27451%,37.647059%);fill-opacity:1;" d="M 0 19 L 0 0 L 43 0 L 43 38 L 0 38 Z M 18.296875 37.066406 C 18.296875 36.960938 18.058594 36.875 18.007812 36.960938 C 17.984375 37.003906 17.984375 37.054688 18.019531 37.089844 C 18.09375 37.167969 18.296875 37.152344 18.296875 37.066406 Z M 17.65625 37.003906 C 17.730469 36.980469 17.765625 36.917969 17.738281 36.875 C 17.714844 36.832031 17.65625 36.816406 17.613281 36.851562 C 17.570312 36.875 17.476562 36.859375 17.410156 36.800781 C 17.351562 36.746094 17.207031 36.695312 17.097656 36.679688 C 16.988281 36.671875 16.761719 36.59375 16.59375 36.515625 C 16.414062 36.429688 16.15625 36.351562 16.003906 36.335938 C 15.664062 36.292969 14.964844 35.992188 14.882812 35.863281 C 14.855469 35.8125 14.796875 35.785156 14.753906 35.8125 C 14.652344 35.871094 13.320312 35.195312 13.320312 35.082031 C 13.320312 35.03125 13.261719 34.996094 13.1875 34.996094 C 12.984375 34.996094 12.46875 34.65625 12.519531 34.558594 C 12.554688 34.515625 12.519531 34.507812 12.453125 34.535156 C 12.394531 34.550781 11.945312 34.277344 11.457031 33.917969 C 10.464844 33.160156 9.933594 32.691406 10 32.578125 C 10.023438 32.542969 9.972656 32.511719 9.898438 32.511719 C 9.730469 32.511719 9.191406 32.019531 9.191406 31.875 C 9.191406 31.824219 8.996094 31.617188 8.769531 31.414062 C 8.53125 31.207031 8.347656 30.984375 8.347656 30.914062 C 8.347656 30.855469 8.304688 30.792969 8.253906 30.792969 C 8.210938 30.792969 8.128906 30.683594 8.085938 30.539062 C 8.035156 30.398438 7.960938 30.304688 7.917969 30.332031 C 7.875 30.355469 7.816406 30.304688 7.78125 30.21875 C 7.757812 30.132812 7.679688 30.03125 7.613281 29.996094 C 7.554688 29.960938 7.503906 29.867188 7.503906 29.808594 C 7.503906 29.738281 7.46875 29.679688 7.429688 29.679688 C 7.160156 29.679688 5.496094 26.523438 5.261719 25.5625 C 5.183594 25.253906 5.085938 24.925781 5.035156 24.832031 C 4.972656 24.738281 4.933594 24.59375 4.925781 24.515625 C 4.914062 24.4375 4.847656 24.234375 4.773438 24.0625 C 4.695312 23.898438 4.652344 23.726562 4.679688 23.683594 C 4.703125 23.640625 4.679688 23.570312 4.628906 23.546875 C 4.585938 23.511719 4.5625 23.433594 4.585938 23.367188 C 4.613281 23.304688 4.59375 23.230469 4.542969 23.195312 C 4.492188 23.167969 4.476562 23.082031 4.503906 23.015625 C 4.535156 22.9375 4.519531 22.835938 4.484375 22.78125 C 4.441406 22.730469 4.402344 22.628906 4.394531 22.558594 C 4.394531 22.492188 4.367188 22.292969 4.34375 22.132812 C 4.171875 21.007812 4.121094 20.304688 4.121094 19 C 4.113281 18.339844 4.140625 17.730469 4.171875 17.644531 C 4.207031 17.558594 4.214844 17.363281 4.191406 17.199219 C 4.164062 17.027344 4.183594 16.882812 4.234375 16.847656 C 4.28125 16.8125 4.300781 16.667969 4.273438 16.503906 C 4.25 16.339844 4.265625 16.195312 4.308594 16.160156 C 4.359375 16.136719 4.375 16.015625 4.351562 15.910156 C 4.324219 15.800781 4.34375 15.679688 4.382812 15.65625 C 4.433594 15.621094 4.453125 15.527344 4.425781 15.441406 C 4.402344 15.355469 4.417969 15.261719 4.46875 15.226562 C 4.519531 15.191406 4.535156 15.097656 4.511719 15.011719 C 4.484375 14.925781 4.503906 14.832031 4.542969 14.804688 C 4.59375 14.769531 4.613281 14.695312 4.585938 14.632812 C 4.5625 14.566406 4.585938 14.488281 4.628906 14.453125 C 4.679688 14.429688 4.703125 14.367188 4.6875 14.332031 C 4.59375 14.1875 5.292969 12.207031 5.785156 11.21875 C 5.953125 10.875 6.222656 10.394531 6.375 10.15625 C 6.535156 9.917969 6.660156 9.683594 6.660156 9.640625 C 6.660156 9.597656 6.738281 9.496094 6.828125 9.410156 C 6.921875 9.332031 6.996094 9.210938 6.996094 9.144531 C 6.996094 9.074219 7.046875 8.980469 7.109375 8.945312 C 7.242188 8.859375 7.757812 8.105469 7.757812 7.996094 C 7.757812 7.953125 7.847656 7.847656 7.96875 7.773438 C 8.085938 7.695312 8.171875 7.601562 8.152344 7.566406 C 8.144531 7.53125 8.40625 7.222656 8.726562 6.878906 C 9.054688 6.527344 9.34375 6.175781 9.375 6.082031 C 9.410156 5.988281 9.511719 5.882812 9.59375 5.851562 C 9.824219 5.765625 10.453125 5.191406 10.453125 5.078125 C 10.453125 5.019531 10.515625 4.976562 10.582031 4.976562 C 10.648438 4.976562 10.742188 4.898438 10.792969 4.804688 C 10.84375 4.710938 10.933594 4.632812 10.996094 4.632812 C 11.0625 4.632812 11.128906 4.570312 11.164062 4.503906 C 11.1875 4.433594 11.265625 4.375 11.339844 4.375 C 11.40625 4.375 11.464844 4.339844 11.464844 4.296875 C 11.464844 4.195312 12.445312 3.515625 12.597656 3.515625 C 12.671875 3.515625 12.730469 3.484375 12.730469 3.429688 C 12.730469 3.328125 13.421875 2.917969 13.589844 2.917969 C 13.660156 2.917969 13.859375 2.820312 14.03125 2.703125 C 14.199219 2.582031 14.390625 2.488281 14.453125 2.488281 C 14.511719 2.488281 14.671875 2.402344 14.796875 2.300781 C 14.921875 2.195312 15.101562 2.109375 15.175781 2.101562 C 15.261719 2.09375 15.394531 2.042969 15.464844 1.972656 C 15.539062 1.914062 15.625 1.886719 15.65625 1.921875 C 15.683594 1.945312 15.765625 1.921875 15.84375 1.851562 C 15.976562 1.742188 16.527344 1.527344 16.777344 1.5 C 16.847656 1.492188 17.015625 1.441406 17.140625 1.382812 C 17.277344 1.328125 17.410156 1.304688 17.453125 1.328125 C 17.496094 1.355469 17.554688 1.328125 17.578125 1.277344 C 17.613281 1.234375 17.6875 1.210938 17.757812 1.234375 C 17.816406 1.261719 17.890625 1.242188 17.925781 1.191406 C 17.949219 1.140625 18.027344 1.125 18.09375 1.148438 C 18.152344 1.175781 18.230469 1.15625 18.253906 1.113281 C 18.277344 1.070312 18.101562 1.054688 17.816406 1.082031 C 17.546875 1.097656 17.234375 1.125 17.117188 1.125 C 16.996094 1.125 16.863281 1.167969 16.8125 1.210938 C 16.761719 1.253906 16.652344 1.269531 16.574219 1.234375 C 16.5 1.210938 16.382812 1.226562 16.316406 1.285156 C 16.246094 1.339844 16.15625 1.363281 16.105469 1.328125 C 16.054688 1.296875 15.960938 1.320312 15.894531 1.371094 C 15.824219 1.425781 15.734375 1.449219 15.691406 1.425781 C 15.648438 1.390625 15.582031 1.414062 15.554688 1.46875 C 15.523438 1.507812 15.445312 1.535156 15.378906 1.507812 C 15.320312 1.484375 15.242188 1.5 15.210938 1.550781 C 15.183594 1.605469 15.109375 1.621094 15.050781 1.59375 C 14.992188 1.578125 14.90625 1.59375 14.863281 1.636719 C 14.8125 1.691406 14.621094 1.742188 14.417969 1.757812 C 14.222656 1.777344 13.996094 1.851562 13.910156 1.929688 C 13.820312 2.015625 13.710938 2.050781 13.660156 2.015625 C 13.609375 1.980469 13.5 2.015625 13.421875 2.085938 C 13.210938 2.273438 12.664062 2.488281 12.519531 2.4375 C 12.453125 2.402344 12.394531 2.425781 12.394531 2.480469 C 12.394531 2.53125 12.023438 2.761719 11.578125 2.992188 C 11.121094 3.226562 10.414062 3.636719 9.992188 3.902344 C 9.578125 4.175781 9.164062 4.433594 9.070312 4.496094 C 8.988281 4.546875 8.742188 4.753906 8.523438 4.949219 C 8.3125 5.15625 8.101562 5.316406 8.070312 5.316406 C 8.027344 5.316406 7.824219 5.507812 7.613281 5.746094 C 7.402344 5.980469 7.183594 6.175781 7.117188 6.175781 C 7.046875 6.175781 6.996094 6.226562 6.996094 6.296875 C 6.996094 6.363281 6.753906 6.648438 6.449219 6.914062 C 6.144531 7.1875 5.902344 7.4375 5.902344 7.480469 C 5.902344 7.515625 5.625 7.925781 5.292969 8.398438 C 4.164062 9.957031 4.046875 10.128906 4.046875 10.242188 C 4.046875 10.3125 3.996094 10.394531 3.9375 10.449219 C 3.878906 10.5 3.734375 10.75 3.632812 10.996094 C 3.523438 11.246094 3.40625 11.511719 3.363281 11.582031 C 3.222656 11.828125 3.019531 12.308594 3 12.4375 C 2.976562 12.609375 2.882812 12.859375 2.730469 13.140625 C 2.664062 13.261719 2.613281 13.46875 2.613281 13.578125 C 2.613281 13.699219 2.570312 13.828125 2.53125 13.851562 C 2.480469 13.886719 2.460938 13.9375 2.488281 13.972656 C 2.503906 14.015625 2.46875 14.160156 2.394531 14.308594 C 2.328125 14.453125 2.257812 14.703125 2.25 14.855469 C 2.242188 15.011719 2.210938 15.183594 2.175781 15.226562 C 2.082031 15.378906 1.929688 16.382812 1.980469 16.476562 C 2.015625 16.519531 1.988281 16.617188 1.9375 16.683594 C 1.871094 16.761719 1.855469 16.925781 1.886719 17.105469 C 1.921875 17.277344 1.90625 17.421875 1.855469 17.457031 C 1.738281 17.53125 1.738281 20.476562 1.863281 20.550781 C 1.921875 20.585938 1.929688 20.722656 1.898438 20.902344 C 1.863281 21.085938 1.878906 21.246094 1.949219 21.324219 C 2 21.382812 2.015625 21.503906 1.988281 21.582031 C 1.957031 21.660156 1.980469 21.777344 2.03125 21.839844 C 2.082031 21.90625 2.109375 22.035156 2.082031 22.140625 C 2.058594 22.242188 2.066406 22.386719 2.109375 22.464844 C 2.175781 22.585938 2.605469 24.277344 2.65625 24.617188 C 2.664062 24.6875 2.730469 24.894531 2.808594 25.082031 C 2.890625 25.261719 2.949219 25.46875 2.949219 25.535156 C 2.949219 25.605469 3.050781 25.828125 3.171875 26.035156 C 3.289062 26.25 3.363281 26.453125 3.339844 26.496094 C 3.3125 26.539062 3.347656 26.617188 3.414062 26.675781 C 3.480469 26.738281 3.542969 26.839844 3.542969 26.910156 C 3.542969 27.054688 3.761719 27.492188 3.929688 27.6875 C 4.074219 27.84375 4.972656 29.300781 4.972656 29.371094 C 4.972656 29.394531 5.085938 29.542969 5.226562 29.695312 C 5.363281 29.851562 5.480469 30.023438 5.480469 30.082031 C 5.480469 30.144531 5.515625 30.195312 5.566406 30.195312 C 5.605469 30.195312 5.707031 30.332031 5.785156 30.496094 C 5.859375 30.664062 5.945312 30.777344 5.96875 30.75 C 6.035156 30.691406 6.324219 30.976562 6.324219 31.101562 C 6.324219 31.164062 6.492188 31.351562 6.703125 31.53125 C 6.914062 31.703125 7.074219 31.867188 7.046875 31.882812 C 6.996094 31.933594 7.628906 32.511719 7.730469 32.511719 C 7.773438 32.511719 8.011719 32.722656 8.253906 32.992188 C 8.5 33.257812 8.828125 33.523438 8.988281 33.589844 C 9.148438 33.660156 9.273438 33.753906 9.273438 33.796875 C 9.273438 33.847656 9.308594 33.882812 9.351562 33.882812 C 9.476562 33.882812 10.539062 34.59375 10.539062 34.671875 C 10.539062 34.707031 10.613281 34.742188 10.707031 34.742188 C 10.800781 34.742188 10.902344 34.800781 10.925781 34.867188 C 10.960938 34.9375 11.011719 34.972656 11.0625 34.945312 C 11.105469 34.921875 11.214844 34.972656 11.304688 35.074219 C 11.398438 35.179688 11.542969 35.253906 11.625 35.253906 C 11.710938 35.253906 11.828125 35.304688 11.886719 35.375 C 11.9375 35.445312 12.03125 35.488281 12.082031 35.460938 C 12.140625 35.445312 12.316406 35.511719 12.476562 35.617188 C 12.636719 35.71875 12.832031 35.804688 12.898438 35.8125 C 13.109375 35.828125 13.859375 36.136719 14.003906 36.257812 C 14.082031 36.320312 14.199219 36.351562 14.273438 36.328125 C 14.339844 36.292969 14.425781 36.320312 14.460938 36.363281 C 14.484375 36.414062 14.542969 36.4375 14.585938 36.414062 C 14.628906 36.386719 14.761719 36.414062 14.898438 36.464844 C 15.023438 36.523438 15.175781 36.574219 15.21875 36.585938 C 15.269531 36.585938 15.414062 36.644531 15.546875 36.695312 C 15.683594 36.757812 15.859375 36.78125 15.933594 36.757812 C 16.019531 36.730469 16.113281 36.746094 16.144531 36.800781 C 16.179688 36.859375 16.296875 36.875 16.398438 36.851562 C 16.507812 36.824219 16.625 36.84375 16.652344 36.894531 C 16.6875 36.945312 16.8125 36.953125 16.945312 36.929688 C 17.082031 36.902344 17.207031 36.910156 17.242188 36.960938 C 17.300781 37.066406 17.460938 37.082031 17.65625 37.003906 Z M 21.332031 28.425781 C 21.441406 28.316406 21.457031 27.800781 21.484375 25.003906 L 21.507812 21.703125 L 20.320312 21.703125 L 20.320312 24.0625 C 20.320312 25.355469 20.304688 26.417969 20.285156 26.417969 C 20.277344 26.417969 19.832031 25.964844 19.300781 25.417969 C 18.769531 24.867188 18.035156 24.105469 17.664062 23.71875 C 17.292969 23.339844 16.726562 22.730469 16.414062 22.363281 C 15.734375 21.589844 15.402344 21.453125 15.042969 21.796875 L 14.839844 21.984375 L 14.839844 28.480469 L 16.019531 28.480469 L 16.035156 26.109375 L 16.0625 23.742188 L 16.734375 24.457031 C 17.105469 24.839844 17.847656 25.628906 18.378906 26.195312 C 19.882812 27.785156 20.429688 28.351562 20.65625 28.503906 C 20.875 28.660156 21.121094 28.632812 21.332031 28.425781 Z M 13.507812 28.332031 C 13.71875 28.082031 13.75 27.878906 13.617188 27.628906 C 13.398438 27.191406 13.007812 27.15625 12.699219 27.542969 C 12.539062 27.730469 12.488281 27.871094 12.527344 28 C 12.621094 28.308594 12.832031 28.480469 13.109375 28.480469 C 13.261719 28.480469 13.429688 28.410156 13.507812 28.332031 Z M 29.003906 27.878906 L 29.003906 27.277344 L 26.695312 27.277344 C 24.652344 27.277344 24.375 27.261719 24.273438 27.132812 C 24.179688 27.027344 24.148438 26.523438 24.128906 24.945312 L 24.105469 22.902344 L 29.003906 22.902344 L 29.003906 21.703125 L 26.136719 21.703125 C 23.363281 21.703125 23.261719 21.710938 23.101562 21.875 C 22.933594 22.046875 22.925781 22.140625 22.933594 24.617188 L 22.949219 27.183594 L 23.160156 27.621094 C 23.277344 27.859375 23.457031 28.101562 23.558594 28.144531 C 23.648438 28.1875 23.828125 28.28125 23.945312 28.351562 C 24.113281 28.453125 24.621094 28.480469 26.585938 28.480469 L 29.003906 28.480469 Z M 33.574219 25.714844 L 33.597656 22.945312 L 34.929688 22.921875 L 36.253906 22.894531 L 36.253906 21.703125 L 29.679688 21.703125 L 29.679688 22.902344 L 32.375 22.902344 L 32.375 28.480469 L 33.558594 28.480469 Z M 28.398438 25.117188 L 28.371094 24.488281 L 26.5 24.464844 L 24.621094 24.445312 L 24.621094 25.734375 L 28.421875 25.734375 Z M 11.046875 15.3125 L 11.046875 13.894531 L 15.34375 13.894531 L 15.34375 16.726562 L 16.527344 16.726562 L 16.527344 9.863281 L 15.34375 9.863281 L 15.34375 12.695312 L 11.046875 12.695312 L 11.046875 9.863281 L 10.40625 9.863281 C 9.855469 9.863281 9.773438 9.882812 9.8125 10 C 9.839844 10.078125 9.863281 11.621094 9.863281 13.433594 L 9.863281 16.726562 L 11.046875 16.726562 Z M 22.671875 16.597656 C 23.195312 16.460938 23.414062 16.332031 23.800781 15.964844 C 24.222656 15.558594 24.492188 15.078125 24.621094 14.515625 C 24.753906 13.90625 24.679688 12.199219 24.492188 11.65625 C 24.308594 11.117188 23.683594 10.464844 23.058594 10.15625 L 22.554688 9.90625 L 18.363281 9.90625 L 18.160156 10.148438 L 17.957031 10.386719 L 17.957031 13.320312 C 17.957031 16.488281 17.96875 16.582031 18.40625 16.667969 C 18.84375 16.761719 22.285156 16.699219 22.671875 16.597656 Z M 27.097656 13.894531 L 27.097656 11.109375 L 31.996094 11.109375 L 31.996094 9.855469 L 29.113281 9.882812 C 26.472656 9.90625 26.214844 9.925781 26.078125 10.0625 C 25.933594 10.199219 25.925781 10.480469 25.902344 13.476562 L 25.875 16.734375 L 26.492188 16.710938 L 27.097656 16.683594 Z M 41.0625 16.589844 C 41.753906 16.289062 42.074219 15.6875 42.074219 14.675781 C 42.074219 13.90625 41.988281 13.613281 41.667969 13.269531 C 41.210938 12.773438 41.078125 12.746094 39.289062 12.710938 C 38.386719 12.703125 37.5625 12.667969 37.460938 12.652344 C 37.234375 12.601562 37.097656 12.207031 37.097656 11.589844 L 37.097656 11.109375 L 41.523438 11.109375 L 41.550781 10.492188 L 41.574219 9.863281 L 35.910156 9.863281 L 35.925781 11.1875 C 35.933594 11.992188 35.984375 12.625 36.050781 12.824219 C 36.164062 13.160156 36.667969 13.691406 36.988281 13.820312 C 37.097656 13.863281 37.957031 13.894531 38.910156 13.894531 C 40.925781 13.914062 40.890625 13.894531 40.890625 14.78125 C 40.890625 15.269531 40.882812 15.277344 40.597656 15.40625 C 40.371094 15.5 39.839844 15.527344 38.109375 15.527344 L 35.917969 15.527344 L 35.917969 16.734375 L 38.335938 16.726562 C 40.25 16.71875 40.824219 16.683594 41.0625 16.589844 Z M 31.449219 13.296875 L 31.449219 12.695312 L 27.570312 12.695312 L 27.570312 13.894531 L 31.449219 13.894531 Z M 31.449219 13.296875 "/>
<path style=" stroke:none;fill-rule:nonzero;fill:rgb(11.764706%,26.27451%,37.647059%);fill-opacity:1;" d="M 19.171875 15.398438 C 19.199219 15.320312 19.222656 14.332031 19.222656 13.203125 L 19.222656 11.152344 L 20.765625 11.152344 C 22.214844 11.152344 22.34375 11.160156 22.6875 11.347656 C 22.984375 11.503906 23.101562 11.640625 23.277344 12.007812 C 23.488281 12.464844 23.5 12.515625 23.449219 13.5625 C 23.378906 14.789062 23.296875 14.992188 22.65625 15.304688 C 22.351562 15.449219 22.082031 15.472656 20.707031 15.507812 C 19.242188 15.542969 19.121094 15.535156 19.171875 15.398438 Z M 19.171875 15.398438 "/>
<path style=" stroke:none;fill-rule:nonzero;fill:rgb(100%,100%,100%);fill-opacity:1;" d="M 0 19 L 0 0 L 43 0 L 43 38 L 0 38 Z M 18.296875 37.054688 C 18.296875 37.011719 18.136719 36.9375 17.941406 36.886719 C 16.230469 36.464844 13.953125 35.46875 12.519531 34.527344 C 8.355469 31.789062 5.457031 27.507812 4.476562 22.671875 C 3.9375 19.988281 4.046875 16.90625 4.78125 14.238281 C 6.179688 9.101562 9.789062 4.761719 14.5625 2.46875 C 15.53125 2.007812 17.089844 1.457031 17.941406 1.277344 C 18.261719 1.210938 18.464844 1.125 18.464844 1.054688 C 18.464844 0.976562 18.398438 0.953125 18.277344 0.976562 C 18.167969 1.003906 17.824219 1.046875 17.496094 1.070312 C 15.808594 1.226562 13.589844 1.878906 11.886719 2.710938 C 9.671875 3.792969 7.941406 5.121094 6.222656 7.078125 C 5.152344 8.285156 4.351562 9.503906 3.582031 11.109375 C 2.308594 13.757812 1.769531 16.136719 1.769531 19.121094 C 1.769531 22.011719 2.328125 24.445312 3.582031 27.0625 C 6.003906 32.089844 10.691406 35.761719 16.0625 36.832031 C 17.628906 37.140625 18.296875 37.210938 18.296875 37.054688 Z M 21.355469 28.410156 C 21.492188 28.289062 21.5 28.015625 21.5 24.988281 L 21.5 21.703125 L 20.320312 21.703125 L 20.320312 24.0625 C 20.320312 25.355469 20.292969 26.410156 20.261719 26.410156 C 20.21875 26.402344 19.753906 25.929688 19.222656 25.355469 C 15.910156 21.804688 15.714844 21.617188 15.421875 21.617188 C 15.269531 21.617188 15.074219 21.675781 14.992188 21.761719 C 14.847656 21.890625 14.839844 22.113281 14.839844 25.191406 L 14.839844 28.480469 L 16.019531 28.480469 L 16.035156 26.109375 L 16.0625 23.734375 L 18.296875 26.121094 C 19.527344 27.421875 20.605469 28.53125 20.699219 28.5625 C 20.902344 28.648438 21.15625 28.589844 21.355469 28.410156 Z M 13.507812 28.332031 C 13.71875 28.074219 13.75 27.878906 13.617188 27.621094 C 13.464844 27.328125 13.144531 27.21875 12.847656 27.355469 C 12.292969 27.613281 12.496094 28.480469 13.109375 28.480469 C 13.261719 28.480469 13.429688 28.410156 13.507812 28.332031 Z M 29.003906 27.878906 L 29.003906 27.277344 L 26.695312 27.277344 C 24.652344 27.277344 24.375 27.261719 24.273438 27.132812 C 24.179688 27.027344 24.148438 26.523438 24.128906 24.945312 L 24.105469 22.902344 L 29.003906 22.902344 L 29.003906 21.703125 L 26.136719 21.703125 C 23.363281 21.703125 23.261719 21.710938 23.101562 21.875 C 22.933594 22.046875 22.925781 22.132812 22.949219 24.738281 L 22.976562 27.421875 L 23.210938 27.785156 C 23.640625 28.445312 23.792969 28.480469 26.585938 28.480469 L 29.003906 28.480469 Z M 33.574219 25.714844 L 33.597656 22.945312 L 34.929688 22.921875 L 36.253906 22.894531 L 36.253906 21.703125 L 29.679688 21.703125 L 29.679688 22.902344 L 32.375 22.902344 L 32.375 28.480469 L 33.558594 28.480469 Z M 28.496094 25.089844 L 28.496094 24.445312 L 24.621094 24.445312 L 24.621094 25.734375 L 28.496094 25.734375 Z M 11.046875 15.3125 L 11.046875 13.894531 L 15.34375 13.894531 L 15.34375 16.726562 L 16.527344 16.726562 L 16.527344 9.863281 L 15.34375 9.863281 L 15.34375 12.695312 L 11.046875 12.695312 L 11.046875 9.863281 L 10.40625 9.863281 C 9.855469 9.863281 9.773438 9.882812 9.8125 10 C 9.839844 10.078125 9.863281 11.621094 9.863281 13.433594 L 9.863281 16.726562 L 11.046875 16.726562 Z M 22.636719 16.605469 C 23.246094 16.445312 23.53125 16.273438 23.917969 15.84375 C 24.578125 15.113281 24.746094 14.496094 24.679688 13.03125 C 24.628906 11.855469 24.484375 11.382812 23.988281 10.824219 C 23.253906 9.992188 22.636719 9.847656 20.109375 9.882812 C 18.507812 9.90625 18.289062 9.925781 18.152344 10.0625 C 18.019531 10.199219 18 10.472656 17.976562 13.253906 L 17.949219 16.296875 L 18.371094 16.726562 L 20.292969 16.726562 C 21.625 16.726562 22.34375 16.691406 22.636719 16.605469 Z M 27.117188 13.980469 C 27.125 12.496094 27.132812 11.253906 27.140625 11.21875 C 27.140625 11.1875 28.238281 11.144531 29.578125 11.132812 L 31.996094 11.109375 L 31.996094 9.855469 L 29.113281 9.882812 C 26.472656 9.90625 26.214844 9.925781 26.078125 10.0625 C 25.933594 10.199219 25.925781 10.480469 25.902344 13.476562 L 25.875 16.734375 L 26.492188 16.710938 L 27.097656 16.683594 Z M 41.042969 16.597656 C 41.769531 16.28125 42.0625 15.742188 42.074219 14.695312 C 42.074219 13.90625 41.996094 13.621094 41.667969 13.261719 C 41.203125 12.753906 40.933594 12.695312 39.105469 12.695312 C 37.273438 12.695312 37.234375 12.6875 37.140625 12.15625 C 37.105469 12 37.097656 11.71875 37.113281 11.539062 L 37.140625 11.195312 L 41.523438 11.109375 L 41.550781 10.492188 L 41.574219 9.863281 L 35.917969 9.863281 L 35.917969 11.132812 C 35.917969 12.574219 35.984375 12.917969 36.363281 13.355469 C 36.792969 13.851562 36.988281 13.894531 38.734375 13.894531 C 40.242188 13.894531 40.691406 13.957031 40.824219 14.179688 C 40.953125 14.386719 40.890625 15.070312 40.730469 15.277344 L 40.570312 15.484375 L 38.246094 15.507812 L 35.917969 15.535156 L 35.917969 16.726562 L 38.320312 16.726562 C 40.300781 16.726562 40.78125 16.699219 41.042969 16.597656 Z M 31.449219 13.296875 L 31.449219 12.695312 L 27.570312 12.695312 L 27.570312 13.894531 L 31.449219 13.894531 Z M 31.449219 13.296875 "/>
<path style=" stroke:none;fill-rule:nonzero;fill:rgb(100%,100%,100%);fill-opacity:1;" d="M 19.289062 15.472656 C 19.25 15.441406 19.222656 14.453125 19.222656 13.277344 L 19.222656 11.152344 L 20.765625 11.152344 C 22.226562 11.152344 22.335938 11.160156 22.6875 11.347656 C 23.304688 11.683594 23.4375 12.019531 23.4375 13.296875 C 23.4375 14.246094 23.414062 14.402344 23.246094 14.710938 C 23.128906 14.917969 22.90625 15.140625 22.679688 15.269531 C 22.328125 15.472656 22.214844 15.484375 20.824219 15.507812 C 20.015625 15.527344 19.324219 15.507812 19.289062 15.472656 Z M 19.289062 15.472656 "/>
</g>
</svg>
