<?xml version="1.0" encoding="UTF-8" standalone="no"?>
<!-- Created with Inkscape (http://www.inkscape.org/) -->

<svg
   width="40px"
   height="40px"
   viewBox="0 0 135.46667 135.46667"
   version="1.1"
   id="svg5"
   inkscape:version="1.1.2 (0a00cf5339, 2022-02-04)"
   sodipodi:docname="a.svg"
   xmlns:inkscape="http://www.inkscape.org/namespaces/inkscape"
   xmlns:sodipodi="http://sodipodi.sourceforge.net/DTD/sodipodi-0.dtd"
   xmlns="http://www.w3.org/2000/svg"
   xmlns:svg="http://www.w3.org/2000/svg">
  <sodipodi:namedview
     id="namedview7"
     pagecolor="#505050"
     bordercolor="#ffffff"
     borderopacity="1"
     inkscape:pageshadow="0"
     inkscape:pageopacity="0"
     inkscape:pagecheckerboard="1"
     inkscape:document-units="mm"
     showgrid="false"
     width="512px"
     inkscape:zoom="0.74499032"
     inkscape:cx="-48.993925"
     inkscape:cy="267.78871"
     inkscape:window-width="2560"
     inkscape:window-height="1367"
     inkscape:window-x="0"
     inkscape:window-y="0"
     inkscape:window-maximized="1"
     inkscape:current-layer="g63"
     scale-x="1"
     units="px" />
  <defs
     id="defs2" />
  <g
     inkscape:label="Ebene 1"
     inkscape:groupmode="layer"
     id="layer1">
    <g
       id="g63"
       transform="matrix(0.02524199,0,0,0.02524199,-1.0320213,-3.9338882)">
      <g
         fill="#a4195e"
         id="g19"
         transform="matrix(2.9160255,0,0,2.6051601,-4749.9812,-1939.7345)">
        <g
           id="g17">
          <path
             d="m 2475,2711 c -72,-18 -115,-77 -115,-158 0,-45 8,-62 81,-179 172,-272 208,-333 218,-371 6,-21 11,-107 11,-190 0,-140 -2,-153 -18,-153 -53,0 -86,-76 -43,-100 12,-6 118,-10 275,-10 218,0 257,2 270,16 32,32 17,72 -38,99 -20,10 -21,19 -24,159 -1,81 2,162 7,180 4,18 72,135 150,260 82,130 145,241 148,261 9,58 -5,104 -49,151 l -41,44 -401,-1 c -220,-1 -414,-4 -431,-8 z m 810,-121 c 23,-25 16,-49 -39,-135 l -45,-70 h -108 c -98,-1 -118,-4 -217,-38 -116,-40 -204,-48 -259,-24 -41,18 -147,189 -147,238 0,21 6,40 13,42 6,3 186,6 398,6 371,1 387,0 404,-19 z m -176,-319 c 11,-7 3,-26 -36,-92 -88,-146 -83,-127 -83,-334 v -185 h -98 c -63,0 -102,4 -110,12 -8,8 -12,63 -12,182 0,161 -2,174 -25,224 -14,30 -34,66 -45,82 -11,15 -20,30 -20,33 0,2 26,7 58,10 32,4 96,20 143,36 46,16 93,31 104,34 35,8 109,7 124,-2 z"
             id="path9" />
          <path
             d="m 1842,1973 c -32,-6 -156,-125 -177,-170 -12,-26 -15,-44 -9,-64 6,-18 141,-161 368,-389 339,-340 362,-360 396,-360 42,0 66,15 138,84 62,59 82,93 82,136 0,27 -43,75 -362,401 -379,387 -365,375 -436,362 z m 283,-352 229,-231 -44,-45 c -24,-25 -52,-45 -61,-45 -9,0 -123,104 -253,232 l -237,231 52,53 c 40,40 56,51 68,44 9,-5 119,-112 246,-239 z m 362,-363 53,-52 -52,-53 c -29,-29 -57,-53 -63,-52 -5,1 -32,25 -59,55 l -48,53 53,51 c 30,27 56,50 59,50 2,0 28,-23 57,-52 z"
             id="path11" />
          <path
             d="m 3298,1427 c -9,-7 -18,-24 -20,-37 -2,-17 -12,-26 -35,-32 -56,-15 -56,-81 0,-96 24,-6 33,-14 35,-34 2,-15 9,-32 17,-38 19,-16 66,-8 76,13 5,9 13,25 17,34 5,10 19,20 32,23 53,12 51,82 -3,108 -15,7 -34,26 -42,43 -17,31 -47,38 -77,16 z"
             id="path13" />
          <path
             d="m 2953,1162 c -6,-4 -13,-21 -15,-37 -2,-23 -9,-31 -28,-33 -35,-5 -50,-20 -50,-51 0,-33 17,-51 47,-51 18,0 25,-7 30,-31 12,-61 87,-60 100,2 4,22 11,29 28,29 12,0 30,9 41,21 17,19 17,23 3,47 -9,17 -25,28 -42,30 -15,2 -27,10 -27,17 0,34 -24,65 -49,65 -14,0 -31,-4 -38,-8 z"
             id="path15" />
        </g>
      </g>
      <g
         fill="#133451"
         id="g39" />
    </g>
  </g>
</svg>
